<svg width="40" height="40" viewBox="0 0 40 40" fill="none" xmlns="http://www.w3.org/2000/svg">
<g opacity="0.5">
<path d="M1.6665 33.3334V28.6667C1.6665 27.7222 1.90984 26.8545 2.3965 26.0634C2.88317 25.2722 3.52873 24.6678 4.33317 24.25C6.05539 23.3889 7.80539 22.7434 9.58317 22.3134C11.3609 21.8834 13.1665 21.6678 14.9998 21.6667C16.8332 21.6667 18.6387 21.8822 20.4165 22.3134C22.1943 22.7445 23.9443 23.39 25.6665 24.25C26.4721 24.6667 27.1182 25.2711 27.6048 26.0634C28.0915 26.8556 28.3343 27.7234 28.3332 28.6667V33.3334H1.6665ZM31.6665 33.3334V28.3334C31.6665 27.1111 31.3265 25.9372 30.6465 24.8117C29.9665 23.6861 29.0009 22.7211 27.7498 21.9167C29.1665 22.0834 30.4998 22.3684 31.7498 22.7717C32.9998 23.175 34.1665 23.6678 35.2498 24.25C36.2498 24.8056 37.0137 25.4234 37.5415 26.1034C38.0693 26.7834 38.3332 27.5267 38.3332 28.3334V33.3334H31.6665ZM14.9998 20C13.1665 20 11.5971 19.3472 10.2915 18.0417C8.98595 16.7361 8.33317 15.1667 8.33317 13.3334C8.33317 11.5 8.98595 9.93058 10.2915 8.62502C11.5971 7.31947 13.1665 6.66669 14.9998 6.66669C16.8332 6.66669 18.4026 7.31947 19.7082 8.62502C21.0137 9.93058 21.6665 11.5 21.6665 13.3334C21.6665 15.1667 21.0137 16.7361 19.7082 18.0417C18.4026 19.3472 16.8332 20 14.9998 20ZM31.6665 13.3334C31.6665 15.1667 31.0137 16.7361 29.7082 18.0417C28.4026 19.3472 26.8332 20 24.9998 20C24.6943 20 24.3054 19.9656 23.8332 19.8967C23.361 19.8278 22.9721 19.7511 22.6665 19.6667C23.4165 18.7778 23.9932 17.7917 24.3965 16.7084C24.7998 15.625 25.0009 14.5 24.9998 13.3334C24.9998 12.1667 24.7987 11.0417 24.3965 9.95835C23.9943 8.87502 23.4176 7.88891 22.6665 7.00002C23.0554 6.86113 23.4443 6.77113 23.8332 6.73002C24.2221 6.68891 24.6109 6.6678 24.9998 6.66669C26.8332 6.66669 28.4026 7.31947 29.7082 8.62502C31.0137 9.93058 31.6665 11.5 31.6665 13.3334Z" fill="black"/>
</g>
</svg>
