<svg width="40" height="40" viewBox="0 0 40 40" fill="none" xmlns="http://www.w3.org/2000/svg">
<g opacity="0.5" clip-path="url(#clip0_28_36)">
<path d="M30.6068 7.72668C33.3606 10.4802 34.9357 14.1969 34.9988 18.0907C35.0619 21.9845 33.6082 25.7503 30.9451 28.5917L30.6068 28.9417L23.5351 36.0117C22.6378 36.9084 21.4332 37.4305 20.1653 37.4723C18.8975 37.5141 17.6611 37.0724 16.7068 36.2367L16.4668 36.0117L9.39343 28.94C6.58036 26.1269 5 22.3116 5 18.3333C5 14.3551 6.58036 10.5397 9.39343 7.72668C12.2065 4.91361 16.0218 3.33325 20.0001 3.33325C23.9784 3.33325 27.7937 4.91361 30.6068 7.72668ZM20.0001 13.3333C19.3435 13.3333 18.6933 13.4627 18.0867 13.7139C17.48 13.9652 16.9289 14.3335 16.4646 14.7978C16.0003 15.2621 15.632 15.8133 15.3807 16.4199C15.1294 17.0266 15.0001 17.6767 15.0001 18.3333C15.0001 18.99 15.1294 19.6401 15.3807 20.2468C15.632 20.8534 16.0003 21.4046 16.4646 21.8689C16.9289 22.3332 17.48 22.7015 18.0867 22.9527C18.6933 23.204 19.3435 23.3333 20.0001 23.3333C21.3262 23.3333 22.5979 22.8066 23.5356 21.8689C24.4733 20.9312 25.0001 19.6594 25.0001 18.3333C25.0001 17.0073 24.4733 15.7355 23.5356 14.7978C22.5979 13.8601 21.3262 13.3333 20.0001 13.3333Z" fill="black"/>
</g>
<defs>
<clipPath id="clip0_28_36">
<rect width="40" height="40" fill="white"/>
</clipPath>
</defs>
</svg>
