<svg width="30" height="30" viewBox="0 0 30 30" fill="none" xmlns="http://www.w3.org/2000/svg">
<circle cx="15" cy="15" r="15" fill="#D9D9D9"/>
<g opacity="0.2">
<path d="M12.825 17.285L13.9256 16.9675L20.5525 10.2613C20.6048 10.2077 20.6339 10.1357 20.6335 10.0609C20.6332 9.98605 20.6034 9.91435 20.5506 9.86128L20.1537 9.46003C20.1281 9.43367 20.0975 9.41269 20.0636 9.39831C20.0298 9.38393 19.9934 9.37643 19.9566 9.37626C19.9199 9.37608 19.8834 9.38323 19.8495 9.3973C19.8155 9.41136 19.7846 9.43204 19.7587 9.45815L13.1494 16.1469L12.825 17.285ZM20.9394 8.66503L21.3362 9.0669C21.8837 9.62128 21.8888 10.5157 21.3463 11.0644L14.5175 17.9757L12.165 18.6532C12.0214 18.6934 11.8677 18.6749 11.7376 18.6019C11.6075 18.5289 11.5117 18.4073 11.4713 18.2638C11.4411 18.1606 11.4407 18.051 11.47 17.9475L12.1544 15.5475L18.965 8.6544C19.0945 8.524 19.2487 8.42069 19.4185 8.3505C19.5884 8.2803 19.7705 8.24463 19.9543 8.24556C20.1381 8.24649 20.3198 8.28401 20.4889 8.35592C20.6581 8.42783 20.8112 8.53332 20.9394 8.66503ZM13.74 9.38565C14.05 9.38565 14.3012 9.64003 14.3012 9.95378C14.3017 10.0279 14.2876 10.1015 14.2597 10.1702C14.2317 10.2389 14.1905 10.3014 14.1384 10.3542C14.0863 10.4069 14.0242 10.4489 13.9559 10.4777C13.8875 10.5065 13.8142 10.5215 13.74 10.5219H11.495C10.875 10.5219 10.3725 11.0307 10.3725 11.6575V18.4738C10.3725 19.1013 10.875 19.61 11.495 19.61H18.23C18.85 19.61 19.3531 19.1013 19.3531 18.4738V16.2019C19.3531 15.8882 19.6044 15.6338 19.9144 15.6338C20.2244 15.6338 20.4756 15.8882 20.4756 16.2025V18.4738C20.4756 19.7288 19.47 20.7463 18.23 20.7463H11.495C10.255 20.7463 9.25 19.7288 9.25 18.4738V11.6575C9.25 10.4032 10.255 9.38565 11.495 9.38565H13.74Z" fill="black"/>
</g>
</svg>
