<svg width="20" height="20" viewBox="0 0 20 20" fill="none" xmlns="http://www.w3.org/2000/svg">
<g opacity="0.1">
<path fill-rule="evenodd" clip-rule="evenodd" d="M15.2484 4.73583C14.9317 4.7925 14.485 4.93916 13.7684 5.1775L8.35835 6.98166C7.66835 7.21167 7.18169 7.37416 6.83169 7.51083C6.70322 7.55925 6.57748 7.61461 6.45502 7.67666C6.38335 7.71416 6.35835 7.735 6.35669 7.735C6.27642 7.8127 6.2126 7.90574 6.16901 8.0086C6.12542 8.11146 6.10296 8.22203 6.10296 8.33375C6.10296 8.44546 6.12542 8.55603 6.16901 8.65889C6.2126 8.76175 6.27642 8.8548 6.35669 8.9325C6.38751 8.9553 6.42043 8.97512 6.45502 8.99166C6.53835 9.03583 6.65919 9.09 6.83169 9.15833C7.18169 9.29416 7.66835 9.45666 8.35835 9.68666L8.40502 9.7025C8.63252 9.7775 8.83252 9.84416 9.01669 9.94166C9.46065 10.1764 9.82363 10.5394 10.0584 10.9833C10.1559 11.1667 10.2225 11.3667 10.2975 11.595L10.3142 11.6417C10.5434 12.3317 10.7059 12.8183 10.8425 13.1683C10.8905 13.297 10.9459 13.4227 11.0084 13.545C11.0459 13.6167 11.0667 13.6417 11.0667 13.6433C11.1444 13.7236 11.2374 13.7874 11.3403 13.831C11.4431 13.8746 11.5537 13.8971 11.6654 13.8971C11.7771 13.8971 11.8877 13.8746 11.9906 13.831C12.0934 13.7874 12.1865 13.7236 12.2642 13.6433C12.287 13.6125 12.3068 13.5796 12.3234 13.545C12.3675 13.4617 12.4217 13.3408 12.49 13.1675C12.6259 12.8175 12.7884 12.3317 13.0184 11.6425L14.8209 6.23333C15.06 5.51666 15.2067 5.06833 15.2625 4.7525L15.2667 4.73333C15.2603 4.73442 15.2539 4.73553 15.2475 4.73666M14.9559 3.09583C15.4142 3.01416 16.0434 2.99 16.5267 3.47333C17.01 3.95666 16.985 4.585 16.9042 5.04416C16.8242 5.49583 16.635 6.06166 16.4225 6.7L16.4025 6.76L14.5992 12.1683L14.5909 12.1933C14.3709 12.8533 14.1959 13.38 14.0417 13.7733C13.8975 14.1442 13.7267 14.5275 13.4684 14.7958C13.2351 15.0386 12.9552 15.2317 12.6454 15.3636C12.3357 15.4955 12.0025 15.5635 11.6659 15.5635C11.3292 15.5635 10.996 15.4955 10.6863 15.3636C10.3765 15.2317 10.0966 15.0386 9.86335 14.7958C9.60502 14.5275 9.43419 14.1442 9.29002 13.7733C9.13585 13.38 8.96085 12.8533 8.74002 12.1925L8.73169 12.1692C8.63169 11.8683 8.60919 11.8083 8.58502 11.7625C8.50675 11.6144 8.38565 11.4933 8.23752 11.415C8.19169 11.39 8.13169 11.3683 7.83085 11.2675L7.80752 11.2592C7.14669 11.0392 6.62002 10.8642 6.22585 10.71C5.85585 10.5658 5.47252 10.395 5.20419 10.1367C4.96146 9.90338 4.76834 9.62348 4.63643 9.31375C4.50452 9.00401 4.43652 8.67082 4.43652 8.33417C4.43652 7.99751 4.50452 7.66432 4.63643 7.35458C4.76834 7.04485 4.96146 6.76495 5.20419 6.53166C5.47252 6.27333 5.85585 6.1025 6.22585 5.95833C6.74888 5.76316 7.27624 5.57978 7.80752 5.40833L7.83085 5.4L13.24 3.5975L13.3 3.5775C13.9384 3.365 14.5042 3.17583 14.9559 3.09583Z" fill="black"/>
</g>
</svg>
